<svg width="30" height="30" viewBox="0 0 30 30" fill="none" xmlns="http://www.w3.org/2000/svg">
    <path d="M26.25 0H3.75C1.68187 0 0 1.68187 0 3.75V26.25C0 28.3181 1.68187 30 3.75 30H26.25C28.3181 30 30 28.3181 30 26.25V3.75C30 1.68187 28.3181 0 26.25 0Z" fill="#7F9BC0"/>
    <path fill-rule="evenodd" clip-rule="evenodd" d="M24.5678 10.3353C24.7068 9.87184 24.5678 9.53125 23.9063 9.53125H21.7188C21.1626 9.53125 20.9062 9.82547 20.7671 10.1499C20.7671 10.1499 19.6547 12.8614 18.0788 14.6227C17.569 15.1325 17.3372 15.2947 17.0591 15.2947C16.9201 15.2947 16.7188 15.1325 16.7188 14.6691V10.3353C16.7188 9.77914 16.5574 9.53125 16.0938 9.53125H12.6563C12.3087 9.53125 12.0997 9.7894 12.0997 10.0341C12.0997 10.5613 12.8876 10.6829 12.9688 12.1662V15.3875C12.9688 16.0937 12.8413 16.2218 12.5632 16.2218C11.8216 16.2218 10.0177 13.4982 8.94784 10.3817C8.73818 9.77594 8.52788 9.53125 7.96882 9.53125H5.78132C5.15632 9.53125 5.03131 9.82547 5.03131 10.1499C5.03131 10.7293 5.77292 13.603 8.48438 17.4037C10.292 19.9993 12.8388 21.4062 15.1563 21.4062C16.5468 21.4062 16.7188 21.0937 16.7188 20.5555V18.5938C16.7188 17.9688 16.8505 17.844 17.2909 17.844C17.6153 17.844 18.1715 18.0062 19.4693 19.2577C20.9525 20.7409 21.197 21.4062 22.0313 21.4062H24.2188C24.8438 21.4062 25.1563 21.0938 24.976 20.477C24.7788 19.8624 24.0706 18.9706 23.131 17.9135C22.6211 17.311 21.8564 16.6621 21.6246 16.3376C21.3001 15.9205 21.3928 15.7351 21.6246 15.3643C21.6246 15.3643 24.2897 11.6099 24.5678 10.3353V10.3353Z" fill="#003882"/>
</svg>




