<svg xmlns="http://www.w3.org/2000/svg" xmlns:xlink="http://www.w3.org/1999/xlink" xmlns:serif="http://www.serif.com/"><defs><symbol viewBox="0 0 141 26" fill="none" id="icon-arrow-left-slider">
    <path d="M21.5 24.2488L2 12.9905L21.5 1.73212V24.2488Z" fill="white" stroke="white" stroke-width="2" />
    <path d="M22.0002 12.9905L141 13" stroke="white" stroke-width="2" />
</symbol><symbol viewBox="0 0 26 9" fill="none" id="icon-arrow-right">
<path d="M19.9899 4.5L-1.14441e-05 4.5" stroke="#003882" />
<path d="M26 4.5L19.25 8.39711L19.25 0.602886L26 4.5Z" fill="#003882" />
</symbol><symbol viewBox="0 0 142 26" fill="none" id="icon-arrow-right-slider">
    <path d="M120 1.73205L139.5 12.9904L120 24.2487V1.73205Z" fill="white" stroke="white" stroke-width="2" />
    <path d="M0.00012207 12.9905L119 13" stroke="white" stroke-width="2" />
</symbol><symbol viewBox="0 0 13 9" fill="none" id="icon-checkmark">
    <path d="M0.707107 5.24251C0.316583 4.85198 0.316582 4.21882 0.707107 3.82829C1.09763 3.43777 1.7308 3.43777 2.12132 3.82829L5.36396 7.07093C5.75449 7.46146 5.75449 8.09462 5.36396 8.48515C4.97344 8.87567 4.34027 8.87567 3.94975 8.48515L0.707107 5.24251Z" fill="#003882" />
    <rect x="11.0208" width="2" height="11" rx="1" transform="rotate(45 11.0208 0)" fill="#003882" />
</symbol><symbol viewBox="0 0 25 19" fill="none" id="icon-eye">
    <path d="M1.19995 9.6001L0.457169 9.30299C0.380879 9.49371 0.380879 9.70648 0.457169 9.89721L1.19995 9.6001ZM23.5999 9.6001L24.3427 9.89721C24.419 9.70648 24.419 9.49371 24.3427 9.30298L23.5999 9.6001ZM12.3999 16.8001C8.69751 16.8001 6.09773 14.9573 4.39457 13.0649C3.54244 12.1181 2.92493 11.1686 2.52097 10.4557C2.31944 10.1 2.1723 9.80551 2.0767 9.60271C2.02892 9.50138 1.99411 9.42314 1.97189 9.37186C1.96078 9.34622 1.95282 9.32734 1.94798 9.31569C1.94556 9.30987 1.94391 9.30586 1.94304 9.30372C1.9426 9.30265 1.94236 9.30205 1.94231 9.30193C1.94228 9.30186 1.94231 9.30192 1.94238 9.3021C1.94241 9.30218 1.9425 9.30241 1.94252 9.30245C1.94262 9.3027 1.94273 9.30299 1.19995 9.6001C0.457169 9.89721 0.457307 9.89755 0.457456 9.89792C0.457523 9.89809 0.457686 9.8985 0.457819 9.89883C0.458085 9.89949 0.458401 9.90027 0.458767 9.90118C0.459499 9.90299 0.460431 9.90529 0.461563 9.90807C0.463828 9.91362 0.466895 9.92108 0.470772 9.9304C0.478524 9.94903 0.489515 9.97507 0.503796 10.008C0.532354 10.0739 0.574102 10.1676 0.629454 10.285C0.740098 10.5197 0.905462 10.8501 1.12893 11.2445C1.57496 12.0316 2.25745 13.0821 3.2053 14.1353C5.10213 16.2429 8.10234 18.4001 12.3999 18.4001V16.8001ZM1.19995 9.6001C1.94273 9.89721 1.94262 9.89749 1.94252 9.89774C1.9425 9.89779 1.94241 9.89801 1.94238 9.8981C1.94231 9.89827 1.94228 9.89833 1.94231 9.89827C1.94236 9.89814 1.9426 9.89754 1.94304 9.89647C1.94391 9.89433 1.94556 9.89032 1.94798 9.8845C1.95282 9.87286 1.96078 9.85397 1.97189 9.82834C1.99411 9.77705 2.02892 9.69882 2.0767 9.59748C2.1723 9.39468 2.31944 9.10015 2.52097 8.74451C2.92493 8.03163 3.54244 7.08209 4.39457 6.13527C6.09773 4.24287 8.69751 2.4001 12.3999 2.4001V0.800098C8.10234 0.800098 5.10213 2.95733 3.2053 5.06493C2.25745 6.1181 1.57496 7.16857 1.12893 7.95569C0.905462 8.35004 0.740098 8.68051 0.629454 8.91521C0.574102 9.03263 0.532354 9.12627 0.503796 9.19217C0.489515 9.22513 0.478524 9.25117 0.470772 9.2698C0.466895 9.27911 0.463828 9.28657 0.461563 9.29213C0.460431 9.2949 0.459499 9.2972 0.458767 9.29901C0.458401 9.29992 0.458085 9.3007 0.457819 9.30137C0.457686 9.3017 0.457523 9.3021 0.457456 9.30227C0.457307 9.30264 0.457169 9.30299 1.19995 9.6001ZM12.3999 2.4001C16.1023 2.4001 18.7021 4.24287 20.4053 6.13527C21.2574 7.08209 21.875 8.03163 22.2789 8.74451C22.4805 9.10015 22.6276 9.39469 22.7232 9.59748C22.771 9.69882 22.8058 9.77706 22.828 9.82834C22.8391 9.85398 22.8471 9.87286 22.8519 9.8845C22.8543 9.89032 22.856 9.89433 22.8569 9.89647C22.8573 9.89754 22.8575 9.89814 22.8576 9.89827C22.8576 9.89833 22.8576 9.89828 22.8575 9.8981C22.8575 9.89801 22.8574 9.89779 22.8574 9.89775C22.8573 9.89749 22.8572 9.89721 23.5999 9.6001C24.3427 9.30298 24.3426 9.30264 24.3424 9.30226C24.3424 9.3021 24.3422 9.30169 24.3421 9.30136C24.3418 9.3007 24.3415 9.29992 24.3411 9.29901C24.3404 9.2972 24.3395 9.2949 24.3383 9.29212C24.3361 9.28657 24.333 9.27911 24.3291 9.26979C24.3214 9.25116 24.3104 9.22512 24.2961 9.19216C24.2675 9.12626 24.2258 9.03262 24.1704 8.91521C24.0598 8.68051 23.8944 8.35004 23.671 7.95569C23.2249 7.16856 22.5424 6.1181 21.5946 5.06492C19.6977 2.95733 16.6975 0.800098 12.3999 0.800098V2.4001ZM23.5999 9.6001C22.8572 9.30298 22.8573 9.3027 22.8574 9.30245C22.8574 9.3024 22.8575 9.30218 22.8575 9.30209C22.8576 9.30192 22.8576 9.30186 22.8576 9.30192C22.8575 9.30205 22.8573 9.30265 22.8569 9.30372C22.856 9.30586 22.8543 9.30987 22.8519 9.31569C22.8471 9.32733 22.8391 9.34622 22.828 9.37185C22.8058 9.42314 22.771 9.50137 22.7232 9.60271C22.6276 9.80551 22.4805 10.1 22.2789 10.4557C21.875 11.1686 21.2574 12.1181 20.4053 13.0649C18.7021 14.9573 16.1023 16.8001 12.3999 16.8001V18.4001C16.6975 18.4001 19.6977 16.2429 21.5946 14.1353C22.5424 13.0821 23.2249 12.0316 23.671 11.2445C23.8944 10.8502 24.0598 10.5197 24.1704 10.285C24.2258 10.1676 24.2675 10.0739 24.2961 10.008C24.3104 9.97507 24.3214 9.94903 24.3291 9.9304C24.333 9.92109 24.3361 9.91362 24.3383 9.90807C24.3395 9.90529 24.3404 9.903 24.3411 9.90118C24.3415 9.90028 24.3418 9.89949 24.3421 9.89883C24.3422 9.8985 24.3424 9.89809 24.3424 9.89793C24.3426 9.89755 24.3427 9.89721 23.5999 9.6001ZM12.4 12.0001C11.0745 12.0001 9.99995 10.9256 9.99995 9.6001H8.39995C8.39995 11.8092 10.1908 13.6001 12.4 13.6001V12.0001ZM14.7999 9.6001C14.7999 10.9256 13.7254 12.0001 12.4 12.0001V13.6001C14.6091 13.6001 16.3999 11.8092 16.3999 9.6001H14.7999ZM12.4 7.2001C13.7254 7.2001 14.7999 8.27461 14.7999 9.6001H16.3999C16.3999 7.39096 14.6091 5.6001 12.4 5.6001V7.2001ZM12.4 5.6001C10.1908 5.6001 8.39995 7.39096 8.39995 9.6001H9.99995C9.99995 8.27461 11.0745 7.2001 12.4 7.2001V5.6001Z" fill="#222222" />
</symbol><symbol viewBox="0 0 30 30" fill="none" id="icon-facebook">
    <path d="M26.25 0H3.75C1.68187 0 0 1.68187 0 3.75V26.25C0 28.3181 1.68187 30 3.75 30H26.25C28.3181 30 30 28.3181 30 26.25V3.75C30 1.68187 28.3181 0 26.25 0Z" fill="#7F9BC0" />
    <path d="M25.3125 15H20.625V11.25C20.625 10.215 21.465 10.3125 22.5 10.3125H24.375V5.625H20.625C17.5181 5.625 15 8.14313 15 11.25V15H11.25V19.6875H15V30H20.625V19.6875H23.4375L25.3125 15Z" fill="#003882" />
</symbol><symbol viewBox="0 0 24 24" id="icon-hamburger"><g id="icon-hamburger_Icon"><path d="M4,6.75l16,0c0.414,0 0.75,-0.336 0.75,-0.75c0,-0.414 -0.336,-0.75 -0.75,-0.75l-16,0c-0.414,0 -0.75,0.336 -0.75,0.75c0,0.414 0.336,0.75 0.75,0.75Z" /><path d="M4,12.75l16,0c0.414,0 0.75,-0.336 0.75,-0.75c0,-0.414 -0.336,-0.75 -0.75,-0.75l-16,0c-0.414,0 -0.75,0.336 -0.75,0.75c0,0.414 0.336,0.75 0.75,0.75Z" /><path d="M4,18.75l16,0c0.414,0 0.75,-0.336 0.75,-0.75c0,-0.414 -0.336,-0.75 -0.75,-0.75l-16,0c-0.414,0 -0.75,0.336 -0.75,0.75c0,0.414 0.336,0.75 0.75,0.75Z" /></g></symbol><symbol viewBox="0 0 30 30" fill="none" id="icon-linkedin">
    <path d="M27.2863 0H2.71374C1.215 0 0 1.215 0 2.71374V27.2862C0 28.785 1.215 30 2.71374 30H27.2862C28.785 30 30 28.785 30 27.2862V2.71374C30 1.215 28.785 0 27.2863 0ZM9.28327 25.904C9.28327 26.3402 8.92971 26.6937 8.49353 26.6937H5.13181C4.69563 26.6937 4.34207 26.3402 4.34207 25.904V11.8118C4.34207 11.3756 4.69563 11.022 5.13181 11.022H8.49353C8.92971 11.022 9.28327 11.3756 9.28327 11.8118V25.904ZM6.81267 9.69361C5.04887 9.69361 3.61901 8.26374 3.61901 6.49995C3.61901 4.73615 5.04887 3.30628 6.81267 3.30628C8.57647 3.30628 10.0063 4.73615 10.0063 6.49995C10.0063 8.26374 8.57654 9.69361 6.81267 9.69361ZM26.8516 25.9676C26.8516 26.3686 26.5264 26.6937 26.1254 26.6937H22.5181C22.1171 26.6937 21.7919 26.3686 21.7919 25.9676V19.3575C21.7919 18.3715 22.0812 15.0365 19.215 15.0365C16.9918 15.0365 16.5408 17.3192 16.4503 18.3436V25.9676C16.4503 26.3686 16.1252 26.6937 15.7242 26.6937H12.2352C11.8342 26.6937 11.5091 26.3686 11.5091 25.9676V11.7481C11.5091 11.3471 11.8342 11.022 12.2352 11.022H15.7242C16.1252 11.022 16.4503 11.3471 16.4503 11.7481V12.9776C17.2747 11.7404 18.4998 10.7855 21.1083 10.7855C26.8846 10.7855 26.8516 16.1821 26.8516 19.1472V25.9676Z" fill="#7F9BC0" />
</symbol><symbol viewBox="0 0 70 62" fill="none" id="icon-logo">
    <path d="M58.6194 30.5535C58.6194 30.8724 58.6194 31.3827 58.6194 31.8292V31.893C58.6194 32.0844 58.6194 32.2119 58.6194 32.3395C58.6194 32.5309 58.6194 32.7222 58.6194 32.9136C58.4918 37.6975 57.7902 41.9074 56.5782 45.4156C55.3663 48.9877 53.7079 51.9218 51.4754 54.2819C49.4342 56.4506 47.0741 58.1091 44.2675 59.3848C41.4609 60.5967 38.3354 61.4259 34.6996 61.7449H34.6358C33.4239 61.8724 32.1482 61.9362 30.8087 61.9362H27.8107C23.2181 61.9362 19.1996 61.2984 15.819 60.0226C12.3745 58.7469 9.50412 56.8971 7.14404 54.3457C4.78396 51.858 2.99797 48.6687 1.78604 44.8416C0.574105 40.9506 0 36.4218 0 31.1276C0 25.8333 0.637891 21.177 1.78604 17.286C2.99797 13.3951 4.78396 10.2058 7.14404 7.65432C9.50412 5.10288 12.3745 3.1893 15.819 1.91358C18.9445 0.765432 22.5165 0.127572 26.535 0C25.8971 0.255144 25.1955 0.510286 24.6214 0.76543C21.6235 2.10494 19.0082 3.89095 16.8395 6.25103C14.3519 8.86626 12.4383 12.1831 11.1626 16.1379C9.88683 20.0926 9.24899 24.6214 9.1852 29.7881C9.1852 30.107 9.1852 30.4259 9.1852 30.8086C9.1852 31.1914 9.1852 31.5103 9.1852 31.8292C9.24899 34.5082 9.50414 36.9321 9.95064 39.1008C10.142 39.93 10.3333 40.7593 10.5247 41.5247C11.2263 43.8848 12.2469 45.9259 13.6502 47.4568C15.1173 49.179 17.0947 50.5185 19.5185 51.3477C20.6029 51.7304 21.8148 52.0494 23.0905 52.2407C23.1543 52.2407 23.2819 52.3045 23.3457 52.3045C23.4095 52.3045 23.4733 52.3045 23.5371 52.3045C24.8766 52.4959 26.2799 52.6235 27.8107 52.6235H30.8087C31.1914 52.6235 31.5741 52.6235 31.893 52.6235C32.9774 52.6235 34.0617 52.4959 35.0185 52.3683C37.1235 52.0494 39.0371 51.5391 40.6955 50.7099C42.3539 49.8807 43.7572 48.7963 44.9691 47.4568C46.5 45.7346 47.5844 43.4383 48.3498 40.6955C49.0515 37.9527 49.4342 34.6996 49.4342 31C49.4342 27.3004 49.1153 24.0473 48.3498 21.3045C47.6482 18.5617 46.5638 16.2654 45.0329 14.4794C43.8848 13.1399 42.4815 12.0556 40.823 11.2263C40.7593 11.2263 40.6955 11.1626 40.6317 11.1626H41.9712C43.4383 11.1626 44.8416 11.2901 46.1173 11.4177C46.1811 11.4177 46.1811 11.4177 46.2449 11.4177C46.3086 11.4177 46.4362 11.4815 46.5 11.4815C46.6914 11.5453 46.8827 11.5453 47.1379 11.6091C47.2654 11.6091 47.393 11.6728 47.5206 11.6728C47.5844 11.6728 47.5844 11.6728 47.6482 11.6728H47.712C47.7757 11.6728 47.8395 11.6728 47.9033 11.7366C48.0308 11.7366 48.1584 11.8004 48.2222 11.8004C48.5411 11.8642 48.7963 11.9918 49.1152 12.0556C49.179 12.0556 49.2428 12.1193 49.3066 12.1193C49.498 12.1831 49.6893 12.2469 49.8807 12.3107C51.9856 13.0761 53.644 14.2243 54.9197 15.6914C56.1317 17.1584 57.0885 19.072 57.7901 21.4321C57.9177 21.9424 58.1091 22.5165 58.2367 23.1543C58.5556 24.8128 58.7469 26.6625 58.8745 28.7037C58.8745 28.8951 58.8745 29.0864 58.8745 29.2778C58.8745 29.4053 58.8745 29.5329 58.8745 29.7243C58.6194 30.0432 58.6194 30.2346 58.6194 30.5535Z" fill="url(#icon-logo_paint0_linear_202_176)" />
    <path d="M69.7819 30.8725C69.7819 36.1667 69.144 40.8231 67.9958 44.714C66.7839 48.605 64.998 51.7943 62.6379 54.3457C60.2778 56.8972 57.4074 58.8107 53.9629 60.0865C50.8374 61.2346 47.2016 61.8725 43.1193 62C43.8209 61.7449 44.4588 61.4898 45.1605 61.1708C48.1584 59.8313 50.7736 57.9815 52.9423 55.6214C55.3662 53.07 57.216 49.8169 58.4279 46.0535C59.7036 42.2902 60.4053 37.9527 60.5329 32.9774C60.5329 32.7861 60.5329 32.5947 60.5329 32.3396C60.5329 32.1482 60.5329 32.0206 60.5329 31.8931V31.7655C60.5329 31.319 60.5329 30.8087 60.5329 30.4898C60.5329 30.1708 60.5329 30.0433 60.5329 29.8519C60.5329 29.7243 60.5329 29.533 60.5329 29.4054C60.5329 29.214 60.5329 28.9589 60.5329 28.8313C60.4053 25.642 60.0226 22.8992 59.2572 20.4754C58.5555 18.1153 57.5349 16.0741 56.1316 14.5433C54.6646 12.821 52.6872 11.4815 50.2634 10.6523C47.9033 9.82309 45.0967 9.37659 41.9074 9.37659H38.9094C37.4423 9.37659 36.0391 9.44038 34.7633 9.63173C32.6584 9.95066 30.7448 10.4609 29.0864 11.2902C27.428 12.1194 26.0247 13.2038 24.8127 14.5433C23.2819 16.2655 22.1975 18.5618 21.4321 21.3046C20.7304 24.0474 20.3477 27.3005 20.3477 31.0001C20.3477 34.6996 20.6667 37.9527 21.4321 40.6955C22.1337 43.4383 23.2181 45.7346 24.749 47.5206C25.8971 48.8601 27.3004 49.9445 28.9588 50.7737C29.0226 50.7737 29.0864 50.8375 29.1502 50.8375H27.7469C24.7489 50.8375 22.1975 50.4548 20.0926 49.6893C17.9876 48.9239 16.3292 47.7758 15.0535 46.3087C13.8415 44.8416 12.8848 42.928 12.1831 40.568C11.4815 38.1441 11.0988 35.2737 11.035 31.9568C11.035 31.6379 11.035 31.319 11.035 31.0001C11.035 30.6811 11.035 30.3622 11.035 30.0433C11.0988 25.0042 11.7366 20.6667 12.9486 16.9671C14.1605 13.2675 15.8827 10.2058 18.179 7.78194C20.2201 5.677 22.5802 3.95478 25.3868 2.74285C28.1934 1.53091 31.3189 0.701691 34.9547 0.382761C36.2304 0.255189 37.5699 0.191406 38.9094 0.191406H41.9074C46.5 0.191406 50.5185 0.829266 53.8991 2.10499C57.3436 3.38071 60.2139 5.2305 62.574 7.78194C63.7222 9.05766 64.8065 10.461 65.6996 12.0556C66.5926 13.6503 67.358 15.3725 67.9321 17.3498C69.2078 21.0494 69.7819 25.5782 69.7819 30.8725Z" fill="url(#icon-logo_paint1_linear_202_176)" />
    <defs>
        
        
    </defs>
</symbol><linearGradient id="icon-logo_paint0_linear_202_176" x1="29.4373" y1="53" x2="29.4373" y2="-3.5" gradientUnits="userSpaceOnUse">
            <stop stop-color="#003882" />
            <stop offset="1" stop-color="#003882" stop-opacity="0" />
        </linearGradient><linearGradient id="icon-logo_paint1_linear_202_176" x1="40.4084" y1="8.5" x2="40.4084" y2="62" gradientUnits="userSpaceOnUse">
            <stop stop-color="#003882" />
            <stop offset="1" stop-color="#003882" stop-opacity="0" />
        </linearGradient><symbol viewBox="0 0 32 37" fill="none" id="icon-point">
    <path fill-rule="evenodd" clip-rule="evenodd" d="M19.0549 31.7087C26.4303 30.2828 32 23.7918 32 16C32 7.16344 24.8366 0 16 0C7.16344 0 0 7.16344 0 16C0 23.7918 5.56974 30.2828 12.9451 31.7087L16 37L19.0549 31.7087Z" fill="#167BFF" />
    <circle cx="16" cy="16" r="4" fill="white" />
</symbol><symbol viewBox="0 0 9 15" fill="none" id="icon-right">
    <rect x="1.41422" y="14.1421" width="2" height="10" transform="rotate(-135 1.41422 14.1421)" fill="#003882" />
    <path d="M0.000152588 1.41406L1.41437 -0.000151277L8.48543 7.07092L7.07122 8.48513L0.000152588 1.41406Z" fill="#003882" />
</symbol><symbol viewBox="0 0 18 18" fill="none" id="icon-search">
    <path d="M13 7C13 10.3137 10.3137 13 7 13C3.68629 13 1 10.3137 1 7C1 3.68629 3.68629 1 7 1C10.3137 1 13 3.68629 13 7Z" stroke="#003882" stroke-width="2" />
    <rect x="10" y="11.4142" width="2" height="8" rx="1" transform="rotate(-45 10 11.4142)" fill="#003882" />
</symbol><symbol viewBox="0 0 8 6" fill="none" id="icon-triangle">
    <path d="M3.99977 6L0.535663 -1.28846e-07L7.46387 4.76837e-07L3.99977 6Z" fill="#003882" />
</symbol><symbol viewBox="0 0 30 30" fill="none" id="icon-vk">
    <path d="M26.25 0H3.75C1.68187 0 0 1.68187 0 3.75V26.25C0 28.3181 1.68187 30 3.75 30H26.25C28.3181 30 30 28.3181 30 26.25V3.75C30 1.68187 28.3181 0 26.25 0Z" fill="#7F9BC0" />
    <path fill-rule="evenodd" clip-rule="evenodd" d="M24.5678 10.3353C24.7068 9.87184 24.5678 9.53125 23.9063 9.53125H21.7188C21.1626 9.53125 20.9062 9.82547 20.7671 10.1499C20.7671 10.1499 19.6547 12.8614 18.0788 14.6227C17.569 15.1325 17.3372 15.2947 17.0591 15.2947C16.9201 15.2947 16.7188 15.1325 16.7188 14.6691V10.3353C16.7188 9.77914 16.5574 9.53125 16.0938 9.53125H12.6563C12.3087 9.53125 12.0997 9.7894 12.0997 10.0341C12.0997 10.5613 12.8876 10.6829 12.9688 12.1662V15.3875C12.9688 16.0937 12.8413 16.2218 12.5632 16.2218C11.8216 16.2218 10.0177 13.4982 8.94784 10.3817C8.73818 9.77594 8.52788 9.53125 7.96882 9.53125H5.78132C5.15632 9.53125 5.03131 9.82547 5.03131 10.1499C5.03131 10.7293 5.77292 13.603 8.48438 17.4037C10.292 19.9993 12.8388 21.4062 15.1563 21.4062C16.5468 21.4062 16.7188 21.0937 16.7188 20.5555V18.5938C16.7188 17.9688 16.8505 17.844 17.2909 17.844C17.6153 17.844 18.1715 18.0062 19.4693 19.2577C20.9525 20.7409 21.197 21.4062 22.0313 21.4062H24.2188C24.8438 21.4062 25.1563 21.0938 24.976 20.477C24.7788 19.8624 24.0706 18.9706 23.131 17.9135C22.6211 17.311 21.8564 16.6621 21.6246 16.3376C21.3001 15.9205 21.3928 15.7351 21.6246 15.3643C21.6246 15.3643 24.2897 11.6099 24.5678 10.3353V10.3353Z" fill="#003882" />
</symbol></defs></svg>